<?xml version="1.0" encoding="UTF-8" standalone="no"?>
<!-- Generator: Adobe Illustrator 17.1.0, SVG Export Plug-In . SVG Version: 6.00 Build 0)  -->

<svg
   xmlns:dc="http://purl.org/dc/elements/1.1/"
   xmlns:cc="http://creativecommons.org/ns#"
   xmlns:rdf="http://www.w3.org/1999/02/22-rdf-syntax-ns#"
   xmlns:svg="http://www.w3.org/2000/svg"
   xmlns="http://www.w3.org/2000/svg"
   xmlns:sodipodi="http://sodipodi.sourceforge.net/DTD/sodipodi-0.dtd"
   xmlns:inkscape="http://www.inkscape.org/namespaces/inkscape"
   version="1.1"
   id="Capa_1"
   x="0px"
   y="0px"
   viewBox="0 0 208.204 208.204"
   style="enable-background:new 0 0 208.204 208.204;"
   xml:space="preserve"
   inkscape:version="0.91 r13725"
   sodipodi:docname="art.svg"><metadata
     id="metadata3373"><rdf:RDF><cc:Work
         rdf:about=""><dc:format>image/svg+xml</dc:format><dc:type
           rdf:resource="http://purl.org/dc/dcmitype/StillImage" /></cc:Work></rdf:RDF></metadata><defs
     id="defs3371" /><sodipodi:namedview
     pagecolor="#ffffff"
     bordercolor="#666666"
     borderopacity="1"
     objecttolerance="10"
     gridtolerance="10"
     guidetolerance="10"
     inkscape:pageopacity="0"
     inkscape:pageshadow="2"
     inkscape:window-width="1536"
     inkscape:window-height="801"
     id="namedview3369"
     showgrid="false"
     inkscape:zoom="3.0354845"
     inkscape:cx="104.102"
     inkscape:cy="104.102"
     inkscape:window-x="1528"
     inkscape:window-y="-8"
     inkscape:window-maximized="1"
     inkscape:current-layer="Capa_1" /><path
     d="M83.536,208.204c-0.001,0-0.001,0-0.001,0c-4.229,0-8.409-0.68-12.425-2.021c-12.261-4.094-29.286-12.973-40.765-32.028  C9.018,138.758,0.998,86.08,0.92,85.552c-0.136-0.911,0.368-1.796,1.22-2.145c23.929-9.8,48.852-17.602,74.103-23.198  C84.545,29.028,98.881,1.354,99.026,1.074c0.426-0.816,1.358-1.234,2.248-1.018c36.468,8.91,71.785,22.332,104.967,39.892  c0.813,0.431,1.229,1.361,1.004,2.254c-0.129,0.518-13.267,52.157-37.955,85.297c-9.42,12.645-22.084,21.476-37.659,26.263  c-2.078,18.565-10.966,32.37-18.521,41.015C105.653,203.31,94.873,208.204,83.536,208.204z M5.125,86.51  c1.489,8.905,9.77,54.251,28.645,85.58c10.851,18.011,26.983,26.417,38.606,30.298c3.607,1.204,7.361,1.815,11.157,1.815  c0,0,0.002,0,0.002,0c10.184,0,19.865-4.395,26.563-12.059c8.063-9.227,17.728-24.639,17.979-45.664  c0.439-36.894-15.276-79.747-18.566-88.298c-1.94,0.285-3.879,0.585-5.815,0.895c-0.055,0.008-0.109,0.015-0.163,0.019  c-8.373,1.343-16.866,2.955-25.247,4.791c-0.116,0.025-0.232,0.04-0.348,0.045C53.142,69.378,28.656,76.971,5.125,86.51z   M130.558,122.328c1.176,8.683,1.727,16.804,1.639,24.197c-0.012,0.937-0.045,1.888-0.102,2.891  c13.995-4.638,25.42-12.805,33.988-24.306c21.861-29.345,34.532-73.652,36.884-82.366c-32.015-16.797-66.013-29.718-101.102-38.422  C98.965,10.132,87.81,33.27,80.645,59.257c6.833-1.443,13.754-2.739,20.639-3.865c0.02-1.677,0.335-3.348,0.932-4.918  c0.08-0.209,0.171-0.413,0.264-0.614l0.074-0.164c0.306-0.681,0.964-1.135,1.709-1.178l21.811-1.267  c0.76-0.042,1.452,0.332,1.834,0.972c2.261,3.791,2.662,8.323,1.1,12.433c-1.817,4.781-6.099,8.204-11.056,9.035  c2.305,6.981,5.05,16.047,7.521,26.2c4.684,1.907,8.723,5.486,12.631,11.175c1.138,1.656,2.166,3.433,3.058,5.28  c5.907,12.261,4.417,21.206,4.351,21.581c-0.144,0.811-0.771,1.451-1.578,1.612c-0.808,0.16-1.631-0.19-2.076-0.883  c-0.046-0.071-4.666-7.221-11.169-12.229C130.644,122.394,130.601,122.361,130.558,122.328z M129.744,116.839  c1.18,0.784,2.315,1.595,3.385,2.419c3.416,2.631,6.309,5.737,8.408,8.28c-0.363-3.385-1.383-8.066-3.979-13.456  c-0.803-1.664-1.729-3.263-2.751-4.752c-2.634-3.834-5.281-6.559-8.141-8.347C127.89,106.426,128.922,111.741,129.744,116.839z   M111.529,54.054c0.558,0.177,1.03,0.59,1.258,1.155c0.07,0.174,1.636,4.077,3.882,10.621c3.838-0.4,7.214-2.95,8.601-6.596  c0.984-2.592,0.885-5.418-0.249-7.917l-19.255,1.119c-0.242,0.759-0.394,1.532-0.455,2.315c1.73-0.267,3.461-0.524,5.196-0.771  c0.094-0.013,0.187-0.02,0.279-0.02C111.046,53.944,111.295,53.978,111.529,54.054z M79.613,180.085  c-4.121,0-8.605-0.879-13.709-2.687c-2.26-0.801-4.497-1.793-6.648-2.95c-14.295-7.688-19.11-17.327-19.308-17.734  c-0.36-0.74-0.229-1.626,0.329-2.231c0.558-0.605,1.431-0.806,2.199-0.506c0.096,0.037,9.702,3.75,19.639,4.028  c9.996,0.277,18-1.854,18.075-1.875c0.078-0.021,8.068-2.235,16.538-7.525c8.432-5.266,14.841-13.328,14.904-13.409  c0.512-0.647,1.365-0.914,2.153-0.675c0.788,0.24,1.349,0.938,1.412,1.759c0.035,0.451,0.757,11.202-7.686,25.064  c-1.271,2.086-2.699,4.074-4.243,5.908C95.793,176.127,88.497,180.085,79.613,180.085z M46.787,159.562  c2.7,3.195,7.268,7.546,14.364,11.363c1.972,1.06,4.021,1.969,6.089,2.702c4.668,1.654,8.715,2.458,12.374,2.458  c7.597,0,13.949-3.519,20.595-11.41c1.414-1.678,2.721-3.499,3.886-5.412c4.192-6.882,5.93-12.945,6.644-17.067  c-2.851,2.933-7.019,6.757-11.893,9.801c-8.995,5.618-17.262,7.899-17.61,7.993c-0.327,0.088-8.633,2.31-19.233,2.012  C56.258,161.842,50.729,160.651,46.787,159.562z M40.179,132.538c-0.349,0-0.698-0.091-1.011-0.274  c-3.261-1.91-5.601-4.966-6.589-8.605c-2.07-7.626,2.449-15.515,10.075-17.586c1.231-0.334,2.498-0.504,3.763-0.504  c6.447,0,12.131,4.35,13.823,10.579c0.052,0.191,0.092,0.383,0.13,0.575l0.036,0.174c0.167,0.775-0.14,1.576-0.783,2.041  l-18.271,13.22C41.003,132.411,40.591,132.538,40.179,132.538z M46.416,109.57c-0.912,0-1.825,0.123-2.715,0.364  c-5.497,1.493-8.755,7.18-7.262,12.677c0.601,2.21,1.893,4.122,3.692,5.493l16.033-11.601  C54.729,112.386,50.819,109.57,46.416,109.57z M101.759,115.817c-0.064,0-0.128-0.003-0.192-0.009l-22.448-2.163  c-0.79-0.076-1.46-0.612-1.708-1.366l-0.059-0.173c-0.063-0.182-0.125-0.365-0.176-0.553c-2.071-7.628,2.449-15.517,10.074-17.588  c1.231-0.334,2.497-0.504,3.763-0.504c6.447,0,12.131,4.35,13.823,10.579c0.988,3.64,0.515,7.46-1.332,10.756  C103.147,115.429,102.477,115.817,101.759,115.817z M80.869,109.795l19.699,1.898c0.858-2.092,1.006-4.396,0.406-6.606  c-1.219-4.49-5.316-7.626-9.962-7.626c-0.912,0-1.825,0.123-2.715,0.364C83.035,99.253,79.825,104.524,80.869,109.795z   M158.655,86.258c-1.738,0-3.45-0.315-5.089-0.938c-3.578-1.36-6.412-4.032-7.981-7.523c-1.568-3.492-1.683-7.385-0.322-10.963  c1.562-4.11,4.871-7.232,9.079-8.565c0.711-0.225,1.488-0.037,2.017,0.491l15.464,15.433c0.526,0.525,0.718,1.299,0.497,2.009  l-0.048,0.156c-0.066,0.218-0.134,0.436-0.216,0.652C169.952,82.543,164.568,86.258,158.655,86.258z M154.444,62.5  c-2.507,1.115-4.458,3.162-5.443,5.753c-0.98,2.58-0.897,5.386,0.233,7.903s3.174,4.443,5.754,5.423  c1.182,0.45,2.416,0.677,3.667,0.677c4.07,0,7.794-2.442,9.44-6.133L154.444,62.5z"
     id="path3337" /><g
     id="g3339" /><g
     id="g3341" /><g
     id="g3343" /><g
     id="g3345" /><g
     id="g3347" /><g
     id="g3349" /><g
     id="g3351" /><g
     id="g3353" /><g
     id="g3355" /><g
     id="g3357" /><g
     id="g3359" /><g
     id="g3361" /><g
     id="g3363" /><g
     id="g3365" /><g
     id="g3367" /><path
     style="fill:#a0a0a0;stroke:none;stroke-width:1px;stroke-linecap:butt;stroke-linejoin:miter;stroke-opacity:1"
     d="M 77.64823,203.54664 C 70.799093,202.26342 62.020448,198.40747 54.422943,193.34512 44.978998,187.05246 38.173033,179.58235 32.127216,168.87373 23.537273,153.65883 16.144109,133.76765 10.244599,109.99891 8.7963266,104.16392 5.3368745,87.879719 5.3368745,86.897462 c 0,-0.20476 3.001992,-1.521323 6.6710935,-2.925696 19.253328,-7.369339 36.2727,-12.705187 55.656578,-17.449236 14.759172,-3.612189 41.106894,-8.580806 41.760744,-7.875182 0.43085,0.464968 4.43597,12.042318 6.55838,18.957891 8.24117,26.852671 12.34229,51.025681 11.81152,69.620021 -0.0989,3.46319 -0.4161,7.58377 -0.71017,9.22423 -2.36838,13.21185 -7.68315,24.39599 -16.58686,34.90452 -4.70335,5.55109 -11.49464,9.83397 -18.354715,11.57528 -4.233848,1.07469 -10.605704,1.34606 -14.495215,0.61735 z m 8.168301,-24.03281 c 6.145553,-1.60072 11.745166,-5.37377 16.872019,-11.36848 7.20397,-8.42344 11.9714,-19.54577 12.57742,-29.34291 l 0.19496,-3.15184 -0.93779,-0.73766 c -1.27618,-1.00385 -2.25615,-0.69656 -3.87491,1.21504 -2.2976,2.71325 -7.51336,7.62778 -10.37323,9.77415 -5.337655,4.00598 -13.707017,8.18856 -19.819122,9.90459 -5.912579,1.66001 -15.502428,2.46886 -21.58554,1.82061 -4.341524,-0.46265 -9.950335,-1.67245 -13.909179,-3.00017 -1.590653,-0.53347 -3.123571,-0.97173 -3.406488,-0.97391 -0.791001,-0.006 -1.95638,1.24955 -1.95638,2.10793 0,1.15998 2.947339,5.43766 5.833946,8.46721 8.287655,8.69805 19.399832,14.30196 31.55712,15.91436 1.682723,0.22318 7.014093,-0.15668 8.827174,-0.62892 z M 50.626386,125.65298 c 5.419257,-3.92543 9.657325,-7.22181 9.807772,-7.6285 0.391054,-1.05712 -0.512462,-3.7825 -2.034848,-6.13793 -2.56117,-3.96262 -7.089755,-6.33503 -12.09266,-6.33503 -10.650182,0 -17.569099,11.31604 -12.768483,20.88313 1.57365,3.13611 4.764232,6.11758 6.55567,6.12602 0.769053,0.004 3.117206,-1.5364 10.532549,-6.90769 z m 52.021374,-9.9317 c 0.49271,-0.2245 1.08635,-0.99851 1.49579,-1.95029 4.0421,-9.3961 -2.0095,-19.624678 -12.024954,-20.324926 -7.455505,-0.521264 -13.866502,4.386796 -15.309283,11.720316 -0.724174,3.68091 0.170487,8.07208 1.723158,8.45761 0.41962,0.10419 5.729201,0.68467 11.799072,1.28997 6.069872,0.60529 11.140337,1.1183 11.267707,1.14003 0.12737,0.0217 0.59919,-0.128 1.04851,-0.33271 z"
     id="path3375"
     inkscape:connector-curvature="0" /><path
     style="fill:#a0a0a0;stroke:none;stroke-width:1px;stroke-linecap:butt;stroke-linejoin:miter;stroke-opacity:1"
     d="m 78.743037,203.67432 c -0.66167,-0.32489 -5.627131,-1.43675 -6.283435,-1.40697 -0.317083,0.0144 -0.576514,-0.0823 -0.576514,-0.21485 0,-0.33711 -1.988753,-0.99572 -2.343899,-0.77623 -0.160377,0.0991 -0.291595,0.0347 -0.291595,-0.14312 0,-0.30138 -2.064316,-1.18059 -2.800211,-1.19263 -0.181191,-0.003 -0.40356,-0.0893 -0.494156,-0.19191 -0.09059,-0.10259 -1.943676,-1.11457 -4.117958,-2.24884 -7.464186,-3.89391 -13.31288,-8.21392 -18.623172,-13.75561 -5.35809,-5.59158 -8.935494,-10.85011 -13.879549,-20.40198 -1.305724,-2.52265 -2.495946,-4.63636 -2.644937,-4.69713 -0.148991,-0.0608 -0.193074,-0.23641 -0.09796,-0.3903 0.216832,-0.35085 -1.187112,-3.28773 -1.57166,-3.28773 -0.155779,0 -0.198478,-0.13713 -0.09489,-0.30474 0.23486,-0.38002 -0.478577,-2.00131 -0.880656,-2.00131 -0.1628,0 -0.211244,-0.13714 -0.107654,-0.30475 0.225127,-0.36427 -0.470877,-2.00131 -0.850875,-2.00131 -0.14642,0 -0.188221,-0.20326 -0.09289,-0.45168 0.09533,-0.24842 -0.03242,-0.65742 -0.283889,-0.90889 -0.251468,-0.25147 -0.401622,-0.62399 -0.333676,-0.82783 0.06795,-0.20384 -0.06839,-0.57313 -0.302964,-0.82065 -0.234577,-0.24752 -0.428686,-0.59828 -0.431355,-0.77947 -0.01125,-0.7637 -1.227664,-3.78852 -1.523531,-3.78852 -0.177322,0 -0.238216,-0.13622 -0.135321,-0.30271 0.210649,-0.34084 -1.451773,-5.07581 -1.838555,-5.23664 -0.137087,-0.057 -0.167593,-0.31644 -0.06779,-0.57652 0.0998,-0.26007 0.0086,-0.47287 -0.202667,-0.47287 -0.211269,0 -0.307252,-0.12438 -0.213295,-0.27641 0.221572,-0.35851 -0.836871,-3.67683 -1.172797,-3.67683 -0.140919,0 -0.170886,-0.22237 -0.06659,-0.49415 0.104294,-0.27179 0.01677,-0.49416 -0.1945,-0.49416 -0.211268,0 -0.308961,-0.12162 -0.217094,-0.27026 0.1773,-0.28688 -1.732673,-7.02706 -2.070529,-7.30678 -0.109426,-0.0906 -0.198956,-0.31297 -0.198956,-0.49416 0,-0.87525 -0.964698,-4.11796 -1.225086,-4.11796 -0.162945,0 -0.211146,-0.13772 -0.107113,-0.30605 0.229532,-0.37139 -0.522321,-3.31775 -0.846624,-3.31775 -0.126648,0 -0.152734,-0.29649 -0.05797,-0.65887 0.09476,-0.36238 0.02064,-0.65888 -0.164718,-0.65888 -0.18536,0 -0.259483,-0.29649 -0.164719,-0.65887 0.09476,-0.36238 0.02064,-0.65887 -0.164718,-0.65887 -0.18536,0 -0.259483,-0.2965 -0.164718,-0.65888 0.09476,-0.36238 0.04382,-0.65954 -0.113202,-0.66035 -0.157025,-6.6e-4 -0.314416,-0.55402 -0.349758,-1.22935 -0.03534,-0.67533 -0.204913,-1.27476 -0.376824,-1.33207 -0.1719103,-0.0573 -0.2368888,-0.39357 -0.1443961,-0.74726 0.096367,-0.36851 0.00281,-0.64308 -0.2191331,-0.64308 -0.2130157,0 -0.294298,-0.15048 -0.1806272,-0.33441 0.2759003,-0.44641 -0.5210354,-3.94827 -0.8985287,-3.94827 -0.1630507,0 -0.2025887,-0.15188 -0.087862,-0.33751 C 8.6504711,102.61839 6.6028074,92.13064 6.0932383,90.726867 5.9945803,90.455082 5.8485706,89.45561 5.7687723,88.505818 5.6344628,86.907212 5.6864513,86.750325 6.4685896,86.393959 c 0.4646978,-0.211731 0.8449052,-0.504763 0.8449052,-0.651182 0,-0.14642 0.203255,-0.188222 0.4516778,-0.09289 0.2484228,0.09533 0.6574245,-0.03242 0.9088924,-0.28389 0.251468,-0.251468 0.6239917,-0.401622 0.8278306,-0.333675 0.203839,0.06795 0.5731314,-0.06839 0.8206504,-0.302964 0.247519,-0.234577 0.598281,-0.426503 0.779471,-0.426503 0.729063,0 6.424015,-2.243416 6.424015,-2.530615 0,-0.169665 0.132218,-0.226767 0.293817,-0.126894 0.375328,0.231966 3.329987,-0.85187 3.329987,-1.221515 0,-0.152801 0.137331,-0.192944 0.305181,-0.08921 0.350394,0.216556 4.089481,-1.102539 4.245858,-1.497876 0.057,-0.144111 0.316435,-0.180365 0.576514,-0.08056 0.260079,0.0998 0.472871,0.0086 0.472871,-0.202668 0,-0.211269 0.127423,-0.305374 0.283162,-0.209121 0.340923,0.210701 9.390985,-2.762008 9.538864,-3.133269 0.057,-0.143112 0.316435,-0.178548 0.576514,-0.07875 0.260079,0.0998 0.472871,0.03382 0.472871,-0.146621 0,-0.180444 0.185308,-0.308865 0.411796,-0.285381 0.782603,0.08115 3.870881,-0.841549 3.870881,-1.156517 0,-0.173811 0.126277,-0.237977 0.280614,-0.142591 0.330544,0.204287 4.00176,-0.79214 4.002719,-1.086402 3.29e-4,-0.110644 0.470979,-0.234295 1.04582,-0.274781 0.574837,-0.04048 1.130468,-0.188731 1.234732,-0.329436 0.104263,-0.140705 0.632436,-0.304017 1.173717,-0.362915 0.541284,-0.0589 1.060147,-0.207144 1.153028,-0.329436 0.09289,-0.122293 0.613619,-0.269771 1.15719,-0.327731 0.54357,-0.05796 1.038032,-0.244191 1.098806,-0.413848 0.06078,-0.169657 0.23221,-0.233246 0.380967,-0.141307 0.348989,0.215686 6.724706,-1.468508 6.8543,-1.810615 0.05399,-0.142514 0.387539,-0.18344 0.741232,-0.09095 0.368508,0.09637 0.643077,0.0028 0.643077,-0.219133 0,-0.213016 0.139724,-0.300947 0.310501,-0.195401 0.366597,0.226569 6.068504,-1.142096 6.211671,-1.491026 0.05398,-0.131576 0.387539,-0.163553 0.741232,-0.07106 0.368508,0.09637 0.643077,0.0028 0.643077,-0.219133 0,-0.213016 0.150484,-0.294298 0.334408,-0.180627 0.446413,0.2759 3.948269,-0.521036 3.948269,-0.898529 0,-0.163051 0.143371,-0.207847 0.318605,-0.09955 0.437449,0.270359 7.258439,-1.187802 7.258439,-1.551677 0,-0.160828 0.146834,-0.201667 0.326298,-0.09075 0.346356,0.214061 5.982949,-0.79714 6.262436,-1.123476 0.09059,-0.105782 0.826982,-0.235705 1.636411,-0.288719 0.809433,-0.05301 1.550665,-0.20126 1.647184,-0.329437 0.09652,-0.128176 0.916723,-0.28039 1.822674,-0.338253 0.905951,-0.05786 1.696906,-0.244095 1.75768,-0.413848 0.06077,-0.169754 0.244429,-0.225868 0.408126,-0.124699 0.279817,0.172937 5.820459,-0.681317 6.893699,-1.062867 0.27179,-0.09662 1.38364,-0.243371 2.47078,-0.326107 1.08714,-0.08273 2.01495,-0.256001 2.06179,-0.385035 0.0468,-0.129034 0.67279,-0.178569 1.39098,-0.110078 1.14068,0.108781 1.35699,0.266075 1.71055,1.243825 0.22261,0.615613 0.53196,1.119296 0.68745,1.119296 0.15548,0 0.2045,0.126522 0.10893,0.281161 -0.21435,0.346828 0.51524,2.354333 0.85564,2.354333 0.13578,0 0.16154,0.22237 0.0573,0.494155 -0.1043,0.271785 -0.0168,0.494155 0.1945,0.494155 0.21126,0 0.30545,0.127294 0.20929,0.282876 -0.17617,0.285053 3.0323,10.281957 3.39836,10.588535 0.10817,0.0906 0.21224,0.387088 0.23127,0.658874 0.0713,1.017572 2.54054,9.063953 2.81412,9.170005 0.15677,0.06077 0.20312,0.243032 0.10301,0.40502 -0.18376,0.297324 0.48593,2.967887 0.82076,3.273006 0.0994,0.09059 0.18075,0.387088 0.18075,0.658873 0,0.659777 2.24836,9.673075 2.46533,9.883101 0.0936,0.0906 0.175,0.387092 0.18092,0.658872 0.0247,1.13708 0.57685,3.62381 0.80456,3.62381 0.13549,0 0.1755,0.37061 0.0889,0.82359 -0.0866,0.45297 -0.006,0.82359 0.17956,0.82359 0.18535,0 0.26384,0.27976 0.17442,0.62169 -0.0894,0.34193 -0.008,0.7173 0.18117,0.83415 0.18906,0.11684 0.25952,0.43195 0.15656,0.70024 -0.10295,0.26829 -0.0237,0.68486 0.17625,0.92571 0.19989,0.24086 0.27229,0.52907 0.16088,0.64047 -0.11141,0.11141 -0.0881,0.46839 0.0518,0.79328 0.13992,0.3249 0.22175,0.92428 0.18184,1.33196 -0.0399,0.40768 0.0951,0.74123 0.2999,0.74123 0.20485,0 0.29304,0.12849 0.19599,0.28553 -0.17376,0.28115 1.35176,11.27057 1.69815,12.23307 0.0978,0.27178 0.14628,0.97225 0.1077,1.55659 -0.0386,0.58434 0.0441,1.24732 0.18377,1.47328 0.13965,0.22597 0.21375,0.96716 0.16466,1.64709 -0.0491,0.67993 0.0122,1.40032 0.13609,1.60087 0.27459,0.44429 0.33834,2.05246 0.51187,12.91188 0.0746,4.66565 0.0368,8.52006 -0.0839,8.56535 -0.12069,0.0453 -0.2891,1.12006 -0.37426,2.3884 -0.0852,1.26833 -0.25521,2.54854 -0.37789,2.84491 -0.12267,0.29637 -0.25075,1.074 -0.28461,1.72806 -0.0339,0.65407 -0.14729,1.18988 -0.25206,1.19069 -0.27291,0.002 -0.99782,3.30167 -0.79683,3.62688 0.0923,0.14936 0.0422,0.32129 -0.11142,0.38206 -0.38511,0.15238 -1.72906,4.24672 -1.51021,4.60084 0.0974,0.15757 0.0316,0.28649 -0.14627,0.28649 -0.30138,0 -1.18059,2.06432 -1.19263,2.80021 -0.003,0.18119 -0.0943,0.40356 -0.20306,0.49416 -0.10872,0.0906 -1.06617,1.86955 -2.12768,3.95324 -3.30424,6.4861 -8.56821,13.77875 -12.72632,17.63092 -3.72869,3.45436 -8.977366,6.51469 -13.609321,7.93517 -1.087141,0.3334 -2.050744,0.68434 -2.141339,0.77987 -0.199115,0.20996 -0.719394,0.25105 -7.305829,0.57699 -2.840472,0.14057 -5.360663,0.15925 -5.600424,0.0415 z m 5.641301,-23.80798 c 2.611817,-0.32409 7.706167,-2.33115 8.330578,-3.28206 0.133118,-0.20272 0.244303,-0.2553 0.247077,-0.11684 0.007,0.34888 2.640538,-1.42441 2.640538,-1.77799 0,-0.15711 0.213962,-0.28566 0.475475,-0.28566 0.261511,0 0.70625,-0.32948 0.988311,-0.73218 0.282057,-0.40269 0.512834,-0.59148 0.512834,-0.41952 0,0.17196 1.181521,-0.86194 2.625599,-2.29755 1.44408,-1.43562 2.56096,-2.67485 2.48195,-2.75386 -0.079,-0.079 0.22193,-0.43123 0.66876,-0.78271 0.44684,-0.35147 0.81242,-0.83479 0.81242,-1.07404 0,-0.23925 0.22237,-0.52033 0.49416,-0.62463 0.27179,-0.10429 0.49415,-0.41664 0.49415,-0.69412 0,-0.27747 0.12855,-0.50449 0.28566,-0.50449 0.15712,0 0.67808,-0.59299 1.15771,-1.31775 0.47962,-0.72476 0.79004,-1.31775 0.68981,-1.31775 -0.10022,0 0.11492,-0.31894 0.47809,-0.70876 0.36318,-0.38982 0.58257,-0.83456 0.48755,-0.98831 -0.095,-0.15375 -0.0344,-0.27955 0.13461,-0.27955 0.31219,0 2.94114,-5.02476 3.1025,-5.92986 0.0485,-0.27178 0.19553,-0.57471 0.32685,-0.67317 0.13132,-0.0985 0.29498,-0.46908 0.36369,-0.82359 0.0687,-0.35452 0.38185,-1.2266 0.69586,-1.93797 0.314,-0.71137 0.60436,-1.60712 0.64524,-1.99056 0.0409,-0.38344 0.1588,-0.83913 0.26204,-1.01266 0.18773,-0.31554 0.56973,-1.89448 0.8335,-3.44515 0.43916,-2.58178 0.45614,-2.73846 0.85308,-7.87275 0.0625,-0.80858 -1.31491,-1.93412 -2.43078,-1.98627 -0.28337,-0.0132 -2.8124,2.23668 -5.62006,4.99983 -2.80766,2.76315 -6.50434,6.02206 -8.214847,7.24202 -3.951412,2.81822 -12.404402,7.10679 -16.828671,8.53791 -1.876626,0.60704 -3.454279,1.19334 -3.505898,1.3029 -0.05162,0.10956 -0.459294,0.12934 -0.905951,0.0439 -0.446654,-0.0854 -0.812098,-0.0154 -0.812098,0.15555 0,0.17093 -0.444739,0.24551 -0.98831,0.16573 -0.54357,-0.0798 -0.98831,-0.01 -0.98831,0.15562 0,0.16537 -0.518863,0.24011 -1.153028,0.16607 -0.634166,-0.074 -1.153029,9e-5 -1.153029,0.16472 0,0.16463 -0.518148,0.23883 -1.151437,0.1649 -0.633289,-0.0739 -1.408286,-0.0359 -1.722213,0.0846 -0.31393,0.12046 -3.020144,0.19077 -6.013811,0.15623 -7.60922,-0.0878 -7.913811,-0.10406 -7.913811,-0.4233 0,-0.15646 -0.444739,-0.21919 -0.98831,-0.13941 -0.54357,0.0798 -0.98831,0.005 -0.98831,-0.16574 0,-0.17093 -0.365444,-0.24092 -0.812097,-0.15554 -0.446657,0.0854 -0.858605,0.0157 -0.915442,-0.15479 -0.05684,-0.17051 -0.728283,-0.33428 -1.492095,-0.36391 -0.763816,-0.0296 -1.38959,-0.18236 -1.390615,-0.33939 -9.88e-4,-0.15702 -0.291248,-0.20982 -0.644941,-0.11733 -0.353694,0.0925 -0.693827,0.0159 -0.75585,-0.17015 -0.06203,-0.18607 -0.587659,-0.35564 -1.168074,-0.37682 -0.580415,-0.0212 -1.05564,-0.16555 -1.056052,-0.32083 -3.3e-4,-0.15528 -0.213544,-0.20067 -0.473621,-0.10087 -0.260081,0.0998 -0.524065,0.0279 -0.586632,-0.15982 -0.06257,-0.18771 -0.51678,-0.36469 -1.009364,-0.39329 -0.49258,-0.0286 -0.895706,-0.16668 -0.895831,-0.30684 -3.16e-4,-0.34598 -2.273495,-0.0745 -2.666447,0.3185 -1.0343,1.0343 -0.08305,4.01857 2.012117,6.31249 0.540945,0.59226 0.983533,1.15996 0.983533,1.26157 0,0.31037 6.393286,6.66859 6.548899,6.51298 0.08,-0.08 0.349278,0.14554 0.598395,0.5012 0.495848,0.70793 6.552269,4.83516 7.347921,5.00735 0.271785,0.0588 0.568278,0.19901 0.658873,0.31153 0.172335,0.21405 4.160259,2.26597 4.439509,2.28428 0.08835,0.006 0.719263,0.24452 1.402013,0.53049 0.682751,0.28598 1.463737,0.56469 1.735522,0.61936 0.271786,0.0547 0.531217,0.12927 0.576515,0.16578 0.0453,0.0365 0.193544,0.0977 0.329436,0.13602 0.135893,0.0383 0.469448,0.15675 0.741233,0.26323 0.810362,0.31749 2.731547,0.86488 3.788522,1.07943 1.550596,0.31475 2.209433,0.459 3.623804,0.79342 1.292347,0.30556 6.477417,0.23923 9.371601,-0.11989 z M 42.603126,131.38806 c 1.065194,-0.64707 1.936716,-1.32275 1.936716,-1.50152 0,-0.17877 0.133175,-0.24272 0.295943,-0.14212 0.162768,0.10059 0.763061,-0.25345 1.333981,-0.78677 0.570921,-0.53332 1.067797,-0.94488 1.104163,-0.91457 0.180331,0.1503 3.195774,-2.14371 3.195774,-2.43119 0,-0.18318 0.133174,-0.25075 0.295942,-0.15015 0.162768,0.1006 0.755755,-0.24663 1.317747,-0.77161 0.561993,-0.52497 1.026736,-0.85796 1.032764,-0.73997 0.006,0.11799 0.284117,-0.11272 0.617978,-0.51269 0.333857,-0.39997 0.670858,-0.66338 0.748888,-0.58535 0.07803,0.078 0.624444,-0.29889 1.214258,-0.8376 0.58981,-0.53871 1.150775,-0.97948 1.246588,-0.97948 0.09581,0 0.990277,-0.69719 1.987699,-1.54932 1.746404,-1.492 1.805953,-1.59653 1.609473,-2.82525 -0.112216,-0.70176 -0.656817,-2.17289 -1.210222,-3.26918 -1.068014,-2.11573 -3.803979,-5.3146 -4.289091,-5.01478 -0.159141,0.0984 -0.289347,0.0243 -0.289347,-0.16451 0,-0.18883 -0.741233,-0.71894 -1.647184,-1.17802 -0.905951,-0.45908 -1.647183,-0.73991 -1.647183,-0.62408 0,0.11583 -0.24467,0.008 -0.543713,-0.24064 -0.757058,-0.6283 -7.800507,-0.61519 -9.17467,0.0171 -0.543571,0.2501 -1.207988,0.498 -1.476486,0.55089 -0.268494,0.0529 -0.540589,0.2534 -0.604651,0.44558 -0.06406,0.19219 -0.23341,0.27717 -0.376329,0.18884 -0.14292,-0.0883 -0.63295,0.18517 -1.088953,0.60778 -0.456005,0.42261 -1.059004,0.85661 -1.339998,0.96443 -0.280994,0.10783 -0.778967,0.60925 -1.106608,1.11427 -0.32764,0.50503 -0.85514,1.18011 -1.172223,1.50018 -0.317083,0.32007 -0.576515,0.80432 -0.576515,1.07611 0,0.27178 -0.156995,0.49415 -0.348879,0.49415 -0.191883,0 -0.257257,0.14825 -0.145276,0.32944 0.111982,0.18119 0.05839,0.32944 -0.1191,0.32944 -0.177487,0 -0.437298,0.4818 -0.577358,1.07067 -0.311648,1.31029 -0.304923,1.28669 -0.539742,1.89426 -0.201705,0.52189 -0.218812,0.76656 -0.218812,3.12965 0,2.349 0.01713,2.60624 0.208466,3.12964 0.09935,0.27179 0.227565,0.85133 0.284919,1.28788 0.05735,0.43654 0.223059,0.88128 0.368235,0.98831 0.145176,0.10702 0.312136,0.41696 0.371023,0.68874 0.05889,0.27179 0.245118,0.54388 0.413848,0.60466 0.16873,0.0608 0.240387,0.21792 0.159237,0.34922 -0.23864,0.38613 2.177517,3.37819 3.610667,4.47129 1.830731,1.39634 2.821195,1.3937 5.138031,-0.0137 l 0,1e-5 z M 102.5207,115.74461 c 0,-0.19188 0.13559,-0.26508 0.3013,-0.16266 0.33471,0.20686 1.59484,-1.66248 1.78448,-2.64717 0.0667,-0.3464 0.24963,-0.9263 0.40649,-1.28868 0.38141,-0.88117 0.3868,-6.74556 0.007,-7.57705 -0.16555,-0.36238 -0.33232,-0.77005 -0.37062,-0.90595 -0.0383,-0.13589 -0.10669,-0.3212 -0.15199,-0.41179 -0.0453,-0.0906 -0.10818,-0.27591 -0.13974,-0.4118 -0.22694,-0.97736 -0.61411,-1.72954 -0.89021,-1.72954 -0.17968,0 -0.23441,-0.1493 -0.12164,-0.33176 0.11277,-0.18248 -0.0259,-0.420379 -0.3081,-0.528681 -0.28223,-0.108299 -0.44274,-0.31083 -0.35669,-0.450063 0.0861,-0.139237 -0.63123,-0.998114 -1.59395,-1.908618 -1.73716,-1.64293 -4.597026,-3.336999 -5.938558,-3.517755 -0.384413,-0.05179 -0.921303,-0.183885 -1.193088,-0.293528 -1.081327,-0.436233 -7.085008,0.08661 -8.048116,0.700893 -0.193886,0.123664 -0.426643,0.234401 -0.517238,0.24608 -0.688075,0.08872 -1.647184,0.586031 -1.647184,0.854084 0,0.179675 -0.149294,0.234411 -0.331762,0.121638 -0.182472,-0.11277 -0.420701,0.02672 -0.529402,0.309996 -0.108701,0.28327 -0.374062,0.515035 -0.589688,0.515035 -0.794901,0 -4.354943,4.296929 -3.920215,4.731659 0.115442,0.11544 0.0282,0.20989 -0.193893,0.20989 -0.222083,0 -0.319988,0.13559 -0.217573,0.3013 0.102418,0.16571 0.04133,0.35102 -0.135748,0.4118 -0.177079,0.0608 -0.367598,0.40699 -0.423379,0.76937 -0.05578,0.36238 -0.217062,0.84418 -0.358407,1.07067 -0.141342,0.22648 -0.171699,0.5498 -0.06745,0.71846 0.104246,0.16868 0.05033,0.39271 -0.119813,0.49787 -0.520998,0.32199 -0.190711,6.16662 0.414635,7.33723 0.295983,0.57237 0.674258,1.1248 0.840611,1.22761 0.282123,0.17436 2.680356,0.45061 5.827149,0.67123 0.741446,0.052 1.630925,0.18309 1.97662,0.29135 0.345691,0.10826 1.927972,0.26659 3.51618,0.35184 1.588204,0.0853 3.037357,0.24753 3.220336,0.36062 0.182979,0.11308 0.884867,0.17472 1.559748,0.13697 0.674884,-0.0378 1.485888,0.0409 1.802229,0.17486 0.316345,0.13392 1.168762,0.18689 1.894261,0.1177 0.725502,-0.0692 1.319091,-0.0107 1.319091,0.12999 0,0.14068 0.741233,0.25578 1.647179,0.25578 0.9397,0 1.64719,-0.14984 1.64719,-0.34888 l 1e-5,0 z"
     id="path3377"
     inkscape:connector-curvature="0" /><path
     style="fill:#000000;stroke:none;stroke-width:1px;stroke-linecap:butt;stroke-linejoin:miter;stroke-opacity:1"
     d="m 78.98235,203.79553 c -0.237735,-0.23927 -6.622669,-1.64529 -6.845668,-1.50747 -0.139477,0.0862 -0.253594,0.0115 -0.253594,-0.16597 0,-0.2933 -1.664713,-0.82852 -2.181382,-0.70133 -0.118649,0.0292 -0.306425,-0.0809 -0.417281,-0.24478 -0.278331,-0.41139 -3.000572,-1.45782 -3.006805,-1.15582 -0.0026,0.13442 -0.113958,0.0813 -0.247077,-0.11798 -0.133119,-0.19931 -1.872746,-1.19426 -3.865838,-2.21099 -4.289783,-2.18834 -9.578233,-5.58906 -13.012749,-8.36781 -5.330477,-4.3127 -11.169061,-11.01673 -14.872194,-17.07669 -0.935841,-1.53145 -1.851558,-2.78445 -2.034928,-2.78445 -0.183369,0 -0.24092,-0.0925 -0.127889,-0.20551 0.294445,-0.29444 -1.023206,-2.75942 -1.475046,-2.75942 -0.207706,0 -0.286172,-0.0915 -0.174369,-0.20328 0.198468,-0.19847 -2.778923,-6.44166 -3.493139,-7.32464 -0.197984,-0.24477 -0.394947,-0.68334 -0.437696,-0.97461 -0.128282,-0.87404 -1.183638,-3.02776 -1.483651,-3.02776 -0.153672,0 -0.261849,-0.11118 -0.240392,-0.24707 0.112601,-0.71314 -0.09427,-1.4083 -0.556699,-1.87073 -0.284727,-0.28473 -0.440685,-0.51769 -0.346573,-0.51769 0.09411,0 0.01608,-0.44474 -0.173415,-0.98831 -0.189489,-0.54357 -0.473618,-0.98831 -0.631396,-0.98831 -0.157779,0 -0.208874,-0.20326 -0.113546,-0.45168 0.09533,-0.24842 -0.03242,-0.65742 -0.283889,-0.90889 -0.251468,-0.25147 -0.401622,-0.62399 -0.333676,-0.82783 0.06795,-0.20384 -0.116038,-0.61019 -0.408854,-0.90301 -0.292817,-0.29282 -0.449762,-0.53239 -0.348768,-0.53239 0.294685,0 -1.186103,-3.76404 -1.585637,-4.03056 -0.199555,-0.13312 -0.260475,-0.2443 -0.135376,-0.24708 0.277556,-0.006 -1.268629,-4.63708 -1.688392,-5.05684 -0.164711,-0.16471 -0.221075,-0.50378 -0.125254,-0.75349 0.09582,-0.2497 0.04245,-0.45401 -0.118609,-0.45401 -0.161057,0 -0.323585,-0.3716 -0.361173,-0.82577 -0.03759,-0.45418 -0.31505,-1.38072 -0.616581,-2.05898 -0.30153,-0.67826 -0.518981,-1.41851 -0.483223,-1.645 0.03576,-0.22649 -0.05818,-0.4118 -0.208758,-0.4118 -0.150575,0 -0.296028,-0.29544 -0.323228,-0.65653 -0.07044,-0.93509 -1.745678,-6.35581 -2.097205,-6.78611 -0.16164,-0.19786 -0.221558,-0.43208 -0.13315,-0.52049 0.16013,-0.16013 -0.722194,-3.44805 -1.085866,-4.04641 -0.105144,-0.17299 -0.234548,-0.71075 -0.287563,-1.19502 -0.05302,-0.48427 -0.271047,-1.30633 -0.484514,-1.8268 -0.213468,-0.52048 -0.355632,-1.20575 -0.315921,-1.52283 0.03971,-0.31709 -0.07149,-0.57652 -0.247101,-0.57652 -0.175617,0 -0.241768,-0.29649 -0.147004,-0.65887 0.09476,-0.36238 0.02064,-0.65887 -0.164718,-0.65887 -0.18536,0 -0.259483,-0.2965 -0.164718,-0.65888 0.09476,-0.36238 0.04382,-0.65898 -0.113202,-0.6591 -0.157025,-1.3e-4 -0.306913,-0.3713 -0.333085,-0.82483 -0.02617,-0.45352 -0.160141,-1.08347 -0.297708,-1.39987 -0.1375672,-0.3164 -0.21802,-0.83471 -0.178784,-1.1518 0.039236,-0.31708 -0.049166,-0.57728 -0.1964474,-0.57822 -0.147282,-9.9e-4 -0.2997304,-0.57082 -0.3387749,-1.26639 -0.039044,-0.69558 -0.2418685,-1.69548 -0.4507205,-2.222 -0.208852,-0.52651 -0.4391134,-1.55028 -0.511692,-2.27504 -0.072579,-0.72476 -0.269104,-1.36439 -0.4367235,-1.42139 -0.1676194,-0.057 -0.238215,-0.27938 -0.1568789,-0.494159 C 7.9091649,99.632671 7.5294113,97.455612 6.9839319,95.009544 6.4384525,92.563477 5.9074642,89.711735 5.8039578,88.672341 5.6254265,86.879558 5.6593463,86.762675 6.4646296,86.395763 6.9315054,86.18304 7.3134948,85.889196 7.3134948,85.742777 c 0,-0.14642 0.203255,-0.188222 0.4516778,-0.09289 0.2484228,0.09533 0.6574245,-0.03242 0.9088924,-0.28389 0.251468,-0.251468 0.6239917,-0.401622 0.8278306,-0.333675 0.203839,0.06795 0.6101934,-0.116038 0.9030094,-0.408855 0.292817,-0.292816 0.532393,-0.450868 0.532393,-0.351226 0,0.226477 4.430345,-1.349596 5.765143,-2.05092 0.54357,-0.2856 1.136556,-0.532422 1.317747,-0.548493 0.685943,-0.06084 3.129658,-0.941769 3.129881,-1.128282 1.28e-4,-0.107212 0.333683,-0.217386 0.741232,-0.244831 0.40755,-0.02744 1.482233,-0.385081 2.388184,-0.794747 0.905951,-0.409668 1.832491,-0.714269 2.058979,-0.676893 0.226488,0.03738 0.411796,-0.05524 0.411796,-0.205816 0,-0.150575 0.299683,-0.296347 0.665962,-0.323938 0.977799,-0.07365 8.863986,-2.750081 9.065911,-3.076802 0.09478,-0.153359 0.389951,-0.195325 0.655933,-0.09326 0.265983,0.102067 0.483605,0.01272 0.483605,-0.198549 0,-0.211268 0.132461,-0.302259 0.294359,-0.202201 0.254598,0.15735 2.082471,-0.353532 3.658882,-1.022641 0.271785,-0.115359 0.642401,-0.226408 0.823591,-0.246773 0.984828,-0.110696 3.788618,-0.946969 3.789178,-1.130181 3.29e-4,-0.11782 0.470979,-0.247343 1.04582,-0.287829 0.574837,-0.04048 1.130468,-0.188731 1.234732,-0.329436 0.104263,-0.140705 0.634307,-0.303249 1.177878,-0.361208 0.54357,-0.05796 1.038032,-0.244191 1.098806,-0.413848 0.06077,-0.169658 0.23364,-0.232361 0.38415,-0.139341 0.15051,0.09302 0.693774,-1.7e-4 1.20725,-0.20709 0.51348,-0.206921 1.230091,-0.416482 1.592471,-0.465693 1.051246,-0.142756 4.707235,-1.126626 5.689932,-1.531225 0.494339,-0.203533 1.158233,-0.337568 1.475316,-0.297857 0.317083,0.03971 0.576514,-0.09411 0.576514,-0.297386 0,-0.203272 0.125213,-0.292201 0.278249,-0.197619 0.298671,0.184588 5.480209,-0.974061 6.101537,-1.36437 0.205516,-0.129104 0.633098,-0.192053 0.950181,-0.139889 0.317083,0.05216 0.577282,-0.02566 0.578221,-0.17294 9.88e-4,-0.147282 0.570818,-0.299731 1.266397,-0.338775 0.695579,-0.03904 1.695476,-0.248292 2.221991,-0.464994 0.526516,-0.216702 1.069503,-0.369726 1.206641,-0.340052 0.470663,0.101842 6.668778,-1.330888 7.028578,-1.624695 0.19786,-0.161571 0.433915,-0.2196 0.524559,-0.128953 0.181922,0.18192 5.507487,-0.770603 5.995808,-1.072402 0.168328,-0.104032 0.982647,-0.247297 1.809592,-0.318366 0.826949,-0.07107 1.582004,-0.233266 1.677907,-0.360439 0.0959,-0.127173 0.767347,-0.273372 1.492108,-0.324886 0.72476,-0.05152 1.540116,-0.180392 1.811901,-0.286394 0.271786,-0.106002 0.864772,-0.22926 1.317747,-0.273908 1.432493,-0.141192 5.744603,-0.863713 6.259293,-1.048784 0.27179,-0.09773 1.30952,-0.243946 2.30606,-0.324932 0.99655,-0.08099 1.9199,-0.255097 2.05189,-0.386912 0.13199,-0.131816 0.81518,-0.184811 1.51819,-0.117768 1.09072,0.104016 1.36642,0.298675 1.87961,1.327128 0.33078,0.662878 0.61957,1.279356 0.64175,1.369951 0.0222,0.0906 0.15493,0.64652 0.29499,1.235388 0.14006,0.588868 0.38647,1.070669 0.54758,1.070669 0.16111,0 0.20759,0.22237 0.1033,0.494155 -0.1043,0.271785 -0.0502,0.494155 0.12015,0.494155 0.17037,0 0.31311,0.185308 0.31719,0.411796 0.009,0.50603 2.9772,9.717834 3.29878,10.238166 0.12733,0.206021 0.25284,0.59956 0.27892,0.874531 0.0597,0.629665 2.45941,8.625672 2.71614,9.050401 0.10457,0.172995 0.2335,0.710757 0.28651,1.195025 0.053,0.484269 0.26787,1.30633 0.47745,1.826802 0.20958,0.520472 0.42235,1.242806 0.47282,1.605187 0.12138,0.871475 2.09269,8.755982 2.34746,9.388946 0.10939,0.271785 0.22899,0.716528 0.26577,0.988308 0.25478,1.88252 0.59783,3.31562 0.82769,3.45769 0.14842,0.0917 0.19673,0.44639 0.10736,0.78814 -0.0894,0.34175 -0.0153,0.71237 0.16472,0.82359 0.17996,0.11122 0.25408,0.48184 0.16471,0.82359 -0.0894,0.34175 -0.0153,0.71237 0.16472,0.82359 0.17997,0.11123 0.25409,0.48184 0.16472,0.82359 -0.0894,0.34176 -0.0152,0.71237 0.16472,0.8236 0.17996,0.11122 0.25409,0.48184 0.16472,0.82359 -0.0894,0.34175 -0.008,0.71696 0.18126,0.83381 0.18906,0.11685 0.25951,0.43196 0.15656,0.70025 -0.10295,0.26829 -0.0237,0.68486 0.17625,0.92571 0.19989,0.24086 0.30172,0.49962 0.2263,0.57505 -0.0754,0.0754 0.29704,2.87847 0.82771,6.22898 0.53066,3.35052 1.0251,6.75897 1.09875,7.57432 0.0736,0.81536 0.20227,2.14958 0.28585,2.96493 0.0836,0.81536 0.22896,2.52019 0.32309,3.78852 0.22908,3.08676 0.31103,19.03094 0.10087,19.62541 -0.0914,0.25863 -0.22928,1.35971 -0.30632,2.44685 -0.077,1.08714 -0.22659,2.19899 -0.33231,2.47078 -0.10572,0.27178 -0.24152,1.01845 -0.30176,1.65927 -0.0602,0.64082 -0.19453,1.30792 -0.29839,1.48247 -0.19859,0.3337 -0.66652,2.27563 -0.75122,3.11755 -0.0273,0.27179 -0.21015,0.79065 -0.40624,1.15303 -0.54119,1.00017 -1.4107,4.11727 -1.1501,4.12301 0.12613,0.003 0.0709,0.11395 -0.12279,0.24707 -0.45049,0.30965 -1.53491,3.04059 -1.21004,3.04729 0.13442,0.003 0.0776,0.11396 -0.12636,0.24708 -0.48709,0.31796 -3.82782,6.99398 -3.50312,7.00053 0.13755,0.003 0.0855,0.11396 -0.11558,0.24708 -0.20112,0.13312 -1.49658,1.91938 -2.8788,3.96948 -6.75944,10.02551 -12.57798,15.01577 -20.969133,17.98412 -1.358926,0.48071 -2.693145,0.96153 -2.96493,1.06847 -0.271785,0.10694 -0.938895,0.25405 -1.482465,0.3269 -1.354845,0.18157 -11.399403,0.63492 -11.513912,0.51966 z m 5.089896,-23.98594 c 0.815356,-0.0854 2.075451,-0.31443 2.800212,-0.50897 2.283665,-0.61297 7.914608,-3.50121 8.601671,-4.41198 0.201167,-0.26667 0.492446,-0.48485 0.647287,-0.48485 0.154845,0 0.583242,-0.2823 0.951993,-0.62735 0.368752,-0.34504 1.745247,-1.62945 3.058881,-2.85426 1.31362,-1.2248 2.38841,-2.36656 2.38841,-2.53725 0,-0.17068 0.37062,-0.60186 0.82359,-0.95817 0.45298,-0.35631 0.82359,-0.85945 0.82359,-1.11808 0,-0.25863 0.1529,-0.47024 0.33978,-0.47024 0.18688,0 0.43867,-0.25944 0.55955,-0.57652 0.12088,-0.31708 0.5626,-0.94713 0.98161,-1.40011 0.419,-0.45297 0.8543,-1.12008 0.96732,-1.48246 0.11301,-0.36238 0.31086,-0.733 0.43966,-0.82359 0.26003,-0.18291 0.47133,-0.56211 2.72761,-4.89506 0.86247,-1.65628 1.4891,-3.01142 1.39251,-3.01142 -0.0966,0 0.0672,-0.37062 0.36402,-0.82359 0.2968,-0.45298 0.43032,-0.8236 0.2967,-0.8236 -0.13362,0 -0.0959,-0.1853 0.0839,-0.41179 0.31328,-0.39472 1.07079,-2.49504 1.19524,-3.31402 0.0328,-0.21568 0.14917,-0.54039 0.25866,-0.72158 0.1989,-0.32916 0.41859,-1.2865 0.79375,-3.45909 0.33502,-1.94008 0.42119,-2.69337 0.64679,-5.65432 0.21713,-2.84974 0.21608,-2.85501 -0.68745,-3.44702 -0.4977,-0.32611 -1.12135,-0.62469 -1.38588,-0.66352 -0.26453,-0.0388 -2.20654,1.60286 -4.31557,3.64818 -5.67888,5.50736 -7.797,7.32192 -11.082201,9.49397 -3.88504,2.56864 -11.236091,6.19148 -15.250419,7.5159 -1.758918,0.58031 -3.346283,1.14179 -3.527473,1.24774 -0.18119,0.10594 -0.662991,0.14952 -1.070669,0.0969 -0.407678,-0.0527 -0.741233,0.0374 -0.741233,0.20018 0,0.16278 -0.444739,0.23069 -0.98831,0.15091 -0.54357,-0.0798 -0.98831,-0.01 -0.98831,0.15562 0,0.16537 -0.518863,0.24011 -1.153028,0.16607 -0.634166,-0.074 -1.153029,9e-5 -1.153029,0.16472 0,0.16463 -0.518148,0.23883 -1.151437,0.1649 -0.633289,-0.0739 -1.408975,-0.0356 -1.723741,0.0852 -0.314767,0.12079 -3.095104,0.19209 -6.17853,0.15846 -7.470296,-0.0815 -7.747564,-0.0967 -7.747564,-0.42611 0,-0.15646 -0.444739,-0.21919 -0.98831,-0.13941 -0.54357,0.0798 -0.98831,0.0119 -0.98831,-0.15091 0,-0.16277 -0.333554,-0.2633 -0.741232,-0.2234 -0.407678,0.0399 -1.016919,-0.0457 -1.35387,-0.19025 -0.336951,-0.14454 -1.040786,-0.27777 -1.564073,-0.29606 -0.523291,-0.0183 -0.951776,-0.16172 -0.952187,-0.31875 -3.3e-4,-0.15702 -0.290135,-0.20982 -0.643828,-0.11733 -0.353694,0.0925 -0.688296,0.0325 -0.743562,-0.13328 -0.05526,-0.16579 -0.580942,-0.33536 -1.16817,-0.37682 -0.587227,-0.0415 -1.067981,-0.20242 -1.06834,-0.3577 -3.29e-4,-0.15528 -0.213448,-0.20067 -0.473525,-0.10087 -0.260081,0.0998 -0.519512,0.0507 -0.576515,-0.10923 -0.05701,-0.15988 -0.548383,-0.36173 -1.091954,-0.44856 -0.54357,-0.0868 -1.062433,-0.18582 -1.153028,-0.21998 -0.0906,-0.0341 -0.461212,-0.084 -0.823592,-0.11077 -2.698176,-0.19929 -2.38414,3.0754 0.658873,6.87062 1.816116,2.26505 6.903353,7.41386 7.325193,7.41386 0.229114,0 0.41657,0.13636 0.41657,0.30301 0,0.57203 7.899866,5.94084 7.911524,5.37673 0.0026,-0.13422 0.113959,-0.0778 0.247078,0.12527 0.292981,0.44704 4.359992,2.52775 4.359992,2.2306 0,-0.11539 0.194974,-0.048 0.433279,0.14979 0.458757,0.38073 6.078348,2.30693 7.473202,2.56155 0.452976,0.0827 1.07118,0.22487 1.373788,0.31596 0.30261,0.0911 0.895596,0.2399 1.317746,0.33066 0.422154,0.0908 1.360538,0.29709 2.085298,0.45849 1.216656,0.27094 5.165367,0.18638 8.730073,-0.18696 z M 41.344194,132.02013 c 1.30788,-0.67632 2.994148,-1.84282 3.140741,-2.17265 0.0604,-0.1359 0.298183,-0.24708 0.52841,-0.24708 0.230226,0 0.78173,-0.33356 1.22556,-0.74123 0.44383,-0.40768 1.193157,-0.94434 1.665171,-1.19258 0.472017,-0.24824 1.307956,-0.86213 1.857647,-1.36419 0.549688,-0.50207 1.05342,-0.85886 1.1194,-0.79288 0.06598,0.066 0.584846,-0.30464 1.153028,-0.82359 0.568186,-0.51896 1.105461,-0.87117 1.193948,-0.78268 0.08848,0.0885 0.35506,-0.15004 0.59239,-0.53007 0.237329,-0.38002 0.582671,-0.69095 0.767426,-0.69095 0.184751,0 0.705018,-0.3375 1.156142,-0.75 0.451124,-0.4125 1.762759,-1.4712 2.914747,-2.35266 2.017272,-1.54356 2.087452,-1.64621 1.902918,-2.78336 -0.428656,-2.64149 -4.067205,-8.27976 -5.343186,-8.27976 -0.256384,0 -0.466156,-0.14825 -0.466156,-0.32944 0,-0.18119 -0.158835,-0.32943 -0.352969,-0.32943 -0.19413,0 -0.564845,-0.21188 -0.823809,-0.47085 -0.974678,-0.97467 -4.141803,-1.66279 -7.553295,-1.64109 -2.987648,0.019 -3.493735,0.11659 -5.435705,1.04822 -3.649714,1.75091 -5.073881,3.09051 -6.926952,6.51565 -1.265162,2.33848 -1.418077,3.0472 -1.418077,6.57251 0,2.839 0.217917,4.4879 0.693553,5.2479 0.121342,0.19389 0.253779,0.5722 0.294305,0.8407 0.04053,0.26849 0.230003,0.54027 0.42106,0.60396 0.191057,0.0637 0.347376,0.31222 0.347376,0.5523 0,0.83799 2.938336,4.03869 4.348377,4.73665 1.701926,0.84243 1.674458,0.841 2.99795,0.1566 z m 61.371796,-16.47111 c 0.75105,-0.49212 2.38199,-3.07933 1.94115,-3.07933 -0.10065,0 -0.0191,-0.30628 0.18126,-0.68062 0.4135,-0.77264 0.49073,-7.34436 0.0937,-7.96961 -0.14296,-0.2251 -0.28072,-0.52046 -0.30615,-0.65636 -0.0254,-0.13589 -0.0833,-0.3212 -0.12858,-0.41179 -0.0453,-0.0906 -0.10818,-0.27591 -0.13973,-0.4118 -0.22695,-0.97736 -0.61411,-1.72954 -0.89022,-1.72954 -0.17967,0 -0.23441,-0.1493 -0.12164,-0.33176 0.11277,-0.18248 -0.0267,-0.420705 -0.30999,-0.529406 -0.28327,-0.108701 -0.51504,-0.390409 -0.51504,-0.626018 0,-0.627696 -3.189707,-3.390233 -4.936502,-4.275403 -2.555187,-1.294812 -5.698211,-1.693206 -9.012911,-1.142434 -1.296738,0.215468 -2.505949,0.502582 -2.687139,0.638033 -0.18119,0.135451 -0.737115,0.343665 -1.235388,0.462694 -0.498273,0.119032 -0.905951,0.361843 -0.905951,0.539581 0,0.177738 -0.222369,0.323161 -0.494155,0.323161 -0.271785,0 -0.494155,0.148246 -0.494155,0.329437 0,0.18119 -0.210872,0.329436 -0.468607,0.329436 -0.604516,0 -3.448178,3.231758 -3.695911,4.200319 -0.104273,0.40768 -0.321761,0.74123 -0.48331,0.74123 -0.161546,0 -0.262228,0.11119 -0.223734,0.24708 0.03849,0.13589 -0.114966,0.58063 -0.341026,0.98831 -0.226059,0.40768 -0.313525,0.74123 -0.194371,0.74123 0.119158,0 0.07046,0.18531 -0.108223,0.4118 -0.38217,0.48443 -0.436902,0.9613 -0.463181,4.0356 -0.03763,4.40281 0.641927,6.05736 2.526871,6.15223 0.629989,0.0317 1.553113,0.10108 2.051386,0.15417 0.498273,0.0531 1.690791,0.16747 2.650045,0.2542 0.959251,0.0867 1.996976,0.23537 2.306057,0.33031 0.309077,0.0949 1.896182,0.27302 3.526893,0.39572 1.630712,0.1227 3.706163,0.29417 4.612114,0.38104 0.905951,0.0869 2.351354,0.17614 3.212008,0.19838 0.860653,0.0222 1.564824,0.15161 1.564824,0.28751 0,0.47125 2.662886,0.24432 3.489656,-0.2974 z"
     id="path3379"
     inkscape:connector-curvature="0" /><path
     style="fill:#000000"
     d="m 76.330484,203.03422 c -5.234618,-1.22397 -7.197817,-1.96316 -12.848032,-4.8376 -12.446777,-6.33208 -20.971094,-13.89522 -28.797594,-25.55047 -1.977595,-2.94504 -2.724948,-4.29111 -5.700232,-10.2668 -3.013756,-6.05295 -4.111406,-8.44657 -6.231684,-13.58926 -0.205432,-0.49828 -0.496094,-1.20245 -0.645915,-1.56483 -2.379146,-5.75457 -6.742292,-18.9325 -9.325897,-28.16684 C 9.8336743,108.52361 5.8646328,90.129171 6.0583161,87.901683 c 0.1048134,-1.205424 0.4138352,-1.482116 2.7376438,-2.451232 0.5435706,-0.226689 1.2848031,-0.536654 1.6471831,-0.68881 0.66498,-0.279211 4.86722,-1.845397 7.906481,-2.946765 0.905951,-0.328299 3.129649,-1.137622 4.941551,-1.798497 1.811902,-0.660874 4.925078,-1.723177 6.91817,-2.360673 1.993092,-0.637496 4.290913,-1.42921 5.106269,-1.759365 0.815356,-0.330154 3.113177,-1.066721 5.106269,-1.636816 1.993092,-0.570094 4.21679,-1.231636 4.941551,-1.470092 3.672234,-1.208217 8.672296,-2.590444 16.801271,-4.644575 1.811902,-0.457854 4.332093,-1.110709 5.600424,-1.450788 1.268332,-0.34008 3.492029,-0.870501 4.941551,-1.178715 1.449521,-0.308213 3.895589,-0.853969 5.435705,-1.212792 1.540117,-0.358823 4.356801,-0.944638 6.259298,-1.301811 1.902497,-0.357174 4.052071,-0.772647 4.776832,-0.923274 1.735657,-0.360721 8.173571,-1.534968 11.695005,-2.133116 1.54011,-0.261603 3.80119,-0.64936 5.0246,-0.861682 3.0486,-0.529079 3.46374,-0.218048 4.94479,3.704714 1.09159,2.891199 3.68231,10.86505 6.29471,19.374119 1.03128,3.359082 3.74979,13.829015 5.26059,20.260357 1.85463,7.89502 3.84344,20.1021 4.51536,27.71479 0.52582,5.9574 0.22382,25.50562 -0.43959,28.45417 -1.04606,4.64925 -2.467,9.40523 -3.69096,12.35387 -1.52532,3.67463 -4.93457,9.9357 -7.08567,13.01275 -7.19617,10.29385 -12.13525,14.50559 -20.848821,17.77855 -3.349946,1.2583 -3.838893,1.34941 -8.890139,1.65665 -6.517312,0.39641 -6.377338,0.40162 -9.627906,-0.35843 z m 2.306056,-23.06364 c -9.902435,-0.91521 -18.345671,-4.22322 -26.823889,-10.50944 -3.631318,-2.69245 -8.09195,-7.23117 -10.190732,-10.36911 -1.897378,-2.83681 -2.224093,-2.92267 -0.653586,-0.17177 1.456927,2.55197 9.284715,10.23604 12.795737,12.56083 5.733898,3.79663 10.627914,5.94317 17.624863,7.73035 3.392865,0.86661 4.898701,1.08758 7.247607,1.06353 l 2.964931,-0.0304 -2.964931,-0.27402 0,1e-5 z m 7.120284,-0.29739 c 2.222195,-0.41454 7.233346,-2.80584 9.965631,-4.75556 1.141393,-0.81447 3.507776,-3.00518 5.258635,-4.86824 3.93645,-4.1887 3.70946,-3.91512 5.54956,-6.68862 4.51319,-6.80248 8.61318,-17.46146 8.47908,-22.04351 -0.0163,-0.5556 -0.2423,0.1758 -0.50232,1.62532 -0.96809,5.39684 -3.28788,11.62966 -6.24062,16.7673 -3.50628,6.10078 -9.323152,12.54583 -14.300054,15.84436 -2.864074,1.89822 -7.248922,3.63723 -10.254538,4.0669 -1.498996,0.2143 -1.765718,0.31354 -0.920304,0.34241 0.654732,0.0224 1.988951,-0.1083 2.96493,-0.29036 z m -0.53155,-4.17931 c 2.304954,-0.57105 5.943289,-2.32827 8.102562,-3.91332 2.282229,-1.67531 7.836014,-7.59912 9.588564,-10.2274 3.21948,-4.82824 5.59449,-9.96386 7.06571,-15.27861 1.18975,-4.29795 1.12985,-4.3436 -1.94334,-1.48125 -5.13328,4.78109 -10.716017,8.52598 -17.129816,11.49063 -9.18177,4.2441 -15.535764,5.59471 -26.438192,5.61971 -6.666458,0.0153 -8.592878,-0.18825 -14.435092,-1.52513 -1.597646,-0.36559 -2.997565,-0.57195 -3.110937,-0.45858 -0.319339,0.31934 4.390828,4.78537 7.394539,7.01126 10.192729,7.5533 22.128306,10.93736 30.906002,8.76269 z M 69.412313,157.91603 c 7.826658,-0.6703 11.990326,-1.68038 18.312523,-4.44249 4.41372,-1.92832 9.140966,-4.60864 12.432384,-7.04907 2.91412,-2.1607 8.58626,-7.48813 10.6939,-10.04401 1.15403,-1.39947 0.88104,-1.21486 -1.66569,1.12642 -9.632617,8.85554 -11.746161,10.40974 -18.966571,13.94702 -10.325887,5.05867 -14.410776,5.92976 -26.965616,5.75032 -8.786208,-0.12558 -9.411545,-0.20845 -16.077907,-2.13067 -4.818806,-1.38949 -5.605257,-1.52783 -6.463186,-1.13693 -0.43143,0.19657 -0.784422,0.50193 -0.784422,0.67858 0,0.17665 0.408689,0.0866 0.908194,-0.20005 0.860931,-0.49411 1.097265,-0.46011 4.541088,0.6532 8.274679,2.67502 15.733145,3.5587 24.035303,2.84768 z m 45.956417,-20.19256 0,-2.4189 -1.14716,-0.61778 c -0.87132,-0.46924 -1.2392,-0.52575 -1.52992,-0.23503 -0.29072,0.29072 -0.22024,0.34026 0.29311,0.20602 1.27935,-0.33456 2.05454,0.92687 2.05454,3.34325 0,1.17774 0.0741,2.14134 0.16471,2.14134 0.0906,0 0.16472,-1.0885 0.16472,-2.4189 z m -72.444788,-6.54692 c 1.160529,-0.76383 2.351947,-1.54213 2.64759,-1.72955 0.295647,-0.18741 1.467259,-1.00787 2.603585,-1.82322 1.136322,-0.81536 2.747515,-1.95657 3.58042,-2.53603 0.832908,-0.57946 1.884994,-1.36323 2.337969,-1.74172 0.452976,-0.37849 2.083687,-1.68922 3.623804,-2.91275 3.336107,-2.65031 3.468359,-3.06726 1.981071,-6.24552 -1.107224,-2.36608 -3.43279,-5.67131 -3.990345,-5.67131 -0.18741,0 -0.822834,-0.36771 -1.412055,-0.81713 -1.129253,-0.86132 -3.540752,-1.83494 -4.444213,-1.79429 -0.294302,0.0132 0.237725,0.29884 1.182283,0.63467 4.251868,1.51174 7.846108,5.30825 8.967267,9.47191 0.26264,0.97537 0.273317,1.58901 0.03538,2.03359 -0.338575,0.63264 -17.626036,13.31525 -19.008214,13.94502 -1.098543,0.50052 -2.170336,0.0753 -4.034404,-1.60067 -1.864367,-1.67623 -3.175809,-3.69012 -4.050814,-6.22056 -0.484165,-1.40016 -0.570299,-1.50108 -0.566002,-0.66317 0.0028,0.54357 0.25738,1.45525 0.56576,2.02595 0.308379,0.5707 0.824323,1.54462 1.14654,2.16427 1.158057,2.22702 4.425416,4.86253 6.034168,4.86726 0.379587,9.9e-4 1.639682,-0.62292 2.800212,-1.38675 z m 5.926497,-9.1644 c 4.061424,-2.93609 7.431808,-5.38042 7.489746,-5.43186 0.270949,-0.24053 -1.417635,-2.95212 -2.532821,-4.06731 -2.124942,-2.12494 -4.015141,-2.84441 -7.45562,-2.83785 -2.45884,0.005 -3.217974,0.13717 -4.447396,0.77616 -2.017042,1.04835 -3.835301,2.84204 -4.88462,4.81861 -0.759305,1.43028 -0.874544,2.03761 -0.875126,4.61212 -7.58e-4,3.36224 0.602153,4.94482 2.728359,7.16163 1.08838,1.13476 1.237028,1.19535 1.887254,0.76931 0.388201,-0.25436 4.028803,-2.86472 8.090224,-5.80081 z m -15.29433,-7.91141 c 2.321702,-4.93373 6.503285,-7.79313 12.064275,-8.24966 l 3.037417,-0.24936 -3.129649,0.0914 c -2.866007,0.0837 -3.337787,0.19561 -5.600424,1.328 -2.973844,1.48832 -5.043527,3.55725 -6.573029,6.57061 -1.010087,1.99003 -1.111946,2.46427 -1.192222,5.55083 l -0.08778,3.3749 0.240666,-3.14578 c 0.190245,-2.48673 0.450186,-3.59102 1.240741,-5.27099 z m 69.818911,0.82977 c 1.05334,-1.11687 1.78491,-2.88201 1.77083,-4.27272 -0.004,-0.36238 -0.35797,0.37236 -0.78734,1.63275 -0.96612,2.83601 -1.76559,3.56783 -3.61918,3.31294 -0.741551,-0.10197 -6.009589,-0.62934 -11.706752,-1.17192 -11.432248,-1.08878 -11.282265,-1.04574 -11.859079,-3.4028 l -0.332642,-1.35928 0.131745,1.44845 c 0.212094,2.33183 0.789893,2.66726 5.495551,3.19037 2.241177,0.24914 6.669182,0.67996 9.84001,0.95737 3.170829,0.27742 6.061636,0.55698 6.424016,0.62124 0.362381,0.0643 1.308481,0.13705 2.102441,0.16172 1.25353,0.039 1.58796,-0.10823 2.5404,-1.11812 z m -2.16334,-4.80324 c 0.55805,-2.32622 0.20803,-4.68259 -1.06933,-7.19884 -3.863318,-7.610335 -15.005266,-7.333608 -18.573895,0.46131 -0.872141,1.905 -1.338502,5.34901 -0.826541,6.10387 0.246491,0.36343 2.513767,0.70052 9.158924,1.36168 12.088032,1.2027 10.828212,1.28379 11.310842,-0.72802 z m -24.477725,-3.33446 c -0.07332,-0.59212 -0.134822,-0.18709 -0.136671,0.90005 -0.002,1.08714 0.05814,1.57159 0.13331,1.07657 0.07517,-0.49503 0.07668,-1.38451 0.0034,-1.97662 z m 2.163773,-6.26082 c 1.616691,-2.758673 4.940644,-5.311741 8.304167,-6.378273 0.72476,-0.229815 1.063497,-0.42776 0.752746,-0.43988 -1.812531,-0.0707 -5.73091,2.148777 -7.890721,4.46952 -1.338409,1.438137 -2.862669,4.453583 -3.072593,6.078513 -0.186965,1.4472 -0.184791,1.44511 0.441073,-0.42418 0.345928,-1.0332 1.005325,-2.52077 1.465328,-3.3057 z m 25.789722,2.24417 c -0.58703,-1.72907 -1.10587,-2.68542 -1.91967,-3.538487 -0.31708,-0.332378 -0.57652,-0.734825 -0.57652,-0.894321 0,-0.1595 -0.98332,-1.049115 -2.18516,-1.97692 -2.77271,-2.140505 -5.4536,-3.023702 -8.968027,-2.954435 l -2.518432,0.04964 2.964931,0.234036 c 4.410231,0.348115 7.009965,1.55726 9.815538,4.565248 1.63897,1.757223 3.4928,5.199723 3.57125,6.631733 0.0408,0.74518 0.0585,0.75501 0.18515,0.10328 0.077,-0.39616 -0.0891,-1.39506 -0.36906,-2.21977 z"
     id="path3381"
     inkscape:connector-curvature="0" /><path
     style="fill:#000000;fill-opacity:1"
     d="m 132.29573,147.44951 c 0.27223,-2.05219 -0.28828,-13.75206 -0.94077,-19.63713 -0.27906,-2.51702 -0.42757,-4.65623 -0.33001,-4.75378 0.32401,-0.32402 6.11305,5.6672 8.74944,9.05501 2.80238,3.60111 3.59286,4.10456 4.91421,3.12978 1.1248,-0.82979 1.43677,-3.20854 0.9993,-7.61961 -0.99115,-9.99371 -5.65145,-19.92812 -12.53748,-26.72627 -2.00422,-1.978632 -6.25852,-4.899655 -7.13607,-4.899655 -0.1937,0 -0.67382,-1.297157 -1.06694,-2.882572 -1.01434,-4.09077 -4.78649,-17.245886 -5.77885,-20.153339 -0.99117,-2.903958 -1.02231,-3.319026 -0.24909,-3.319026 1.25722,0 5.27837,-2.271742 6.91096,-3.904338 3.12831,-3.128308 4.80422,-8.155983 4.08319,-12.249383 -0.52696,-2.991594 -1.92752,-5.88081 -2.97977,-6.146989 -1.06334,-0.268988 -22.31469,0.882094 -23.36041,1.265317 -0.9306,0.341033 -1.94152,2.51659 -2.28795,4.923755 l -0.25373,1.763099 -2.632257,0.426116 c -3.047378,0.493319 -16.203862,3.001099 -17.017964,3.243825 -0.465362,0.138746 -0.37505,-0.430198 0.590606,-3.720674 C 86.290281,40.529602 94.274556,20.060122 101.04258,6.3523228 l 0.91373,-1.8506511 1.84702,0.467627 c 28.33748,7.1744543 56.24496,17.2408893 83.3826,30.0767273 5.80231,2.744432 14.90489,7.333696 15.44833,7.788612 0.39027,0.326696 -4.95213,17.061998 -8.76833,27.467154 -9.61622,26.21932 -22.56303,49.870058 -33.51878,61.230798 -5.42452,5.62505 -11.17888,9.91076 -17.88496,13.3203 -3.58756,1.82401 -9.20787,4.18427 -9.96367,4.18427 -0.30352,0 -0.35742,-0.42199 -0.20279,-1.58765 z m 29.26028,-61.370869 c 4.10138,-0.858796 7.86076,-3.700721 9.93259,-7.508594 1.83504,-3.372674 2.08227,-2.953924 -7.22837,-12.243324 -9.17949,-9.158548 -8.73508,-8.881643 -11.89397,-7.410893 -3.00201,1.397705 -5.88335,4.521045 -7.16075,7.762158 -4.14389,10.514213 5.2962,21.715341 16.3505,19.400653 z"
     id="path3383"
     inkscape:connector-curvature="0" /><path
     style="fill:#000000;fill-opacity:1"
     d="m 76.330484,203.04621 c -5.304673,-1.26448 -7.201806,-1.9801 -12.848032,-4.84636 -12.333023,-6.26078 -20.991377,-13.88652 -28.448321,-25.05549 -2.776581,-4.15875 -2.708012,-4.0371 -5.974846,-10.60029 -2.793716,-5.61268 -3.767942,-7.70913 -5.58779,-12.02444 -0.152823,-0.36238 -0.503198,-1.17774 -0.778612,-1.8119 -3.900105,-8.98037 -10.5183,-30.36201 -13.2728293,-42.88101 -0.2924387,-1.3291 -0.64902,-2.9354 -0.7924028,-3.56957 C 7.3224107,96.484218 5.9826217,89.040492 6.0622901,88.004275 c 0.1234346,-1.605467 0.594211,-1.885677 7.3457839,-4.372284 1.811902,-0.667323 4.257969,-1.577676 5.435705,-2.023004 2.460632,-0.93042 1.764595,-0.685584 10.541975,-3.70823 6.199225,-2.134814 8.851896,-2.992481 14.330496,-4.633368 1.087141,-0.325608 3.014346,-0.907658 4.282677,-1.293446 5.092459,-1.548969 18.497917,-5.051266 24.378316,-6.369055 1.268331,-0.284232 4.010892,-0.899198 6.094579,-1.366592 4.338975,-0.97328 16.24086,-3.323719 18.448455,-3.643285 0.815356,-0.118029 2.594314,-0.414023 3.953243,-0.657764 7.33602,-1.315811 7.15917,-1.299459 8.0118,-0.740796 2.28122,1.494711 11.06316,30.778165 14.88958,49.649439 1.06302,5.24263 2.35919,13.72362 2.97057,19.43676 0.5668,5.29655 0.65671,23.15571 0.13771,27.35189 -1.41582,11.4469 -6.89202,23.49634 -15.50516,34.11647 -4.47248,5.51462 -9.52299,9.27111 -15.724928,11.69595 -4.028207,1.57495 -5.539972,1.83641 -11.910283,2.0599 -3.969877,0.13927 -5.222049,0.0615 -7.412325,-0.46065 z m 0.823591,-23.20971 c -1.902497,-0.23413 -4.422687,-0.65947 -5.600424,-0.9452 -1.177736,-0.28573 -2.511954,-0.60113 -2.96493,-0.7009 l -0.823592,-0.18139 0.823592,0.3678 c 1.766321,0.7888 7.508413,1.91029 9.718383,1.8981 2.2889,-0.0126 2.280321,-0.0159 -1.153029,-0.43841 z m 8.631499,-0.18781 c 2.602326,-0.52996 8.003994,-3.27194 10.805267,-5.48494 5.127779,-4.05094 9.719149,-9.7715 12.931809,-16.11223 2.64846,-5.2272 4.31257,-9.64138 4.99554,-13.25107 0.77477,-4.09496 0.57705,-4.34897 -0.29221,-0.3754 -2.21132,10.10831 -7.60838,19.74577 -15.039033,26.855 -4.735893,4.53104 -9.486716,7.17851 -14.77379,8.23291 -1.184048,0.23614 -1.752432,0.44327 -1.263077,0.4603 0.489355,0.017 1.675327,-0.12903 2.635494,-0.32457 z m -21.47953,-3.05338 c -8.789207,-3.58266 -17.735666,-10.3832 -22.345257,-16.98548 -1.931889,-2.76702 -2.338598,-2.78836 -0.501267,-0.0263 1.690293,2.54103 8.689301,9.372 11.772045,11.48942 1.421664,0.97649 3.642598,2.36053 4.935403,3.07565 2.541054,1.40559 8.301406,3.84238 9.104006,3.85125 0.271786,0.003 -1.062433,-0.62904 -2.96493,-1.40454 l 0,-10e-6 z m 20.602938,-1.05119 c 4.667189,-1.2048 8.652652,-3.7371 13.020788,-8.2732 4.73085,-4.91275 8.10251,-10.2521 10.50936,-16.64255 1.42052,-3.77164 2.51143,-7.76638 2.20466,-8.07315 -0.1094,-0.10939 -1.18985,0.72809 -2.40102,1.86107 -6.31563,5.90797 -12.756125,9.95431 -21.32908,13.40032 -6.226742,2.50293 -11.977152,3.62498 -20.301589,3.96139 -5.528442,0.22342 -10.33606,-0.20811 -15.761949,-1.41479 -2.055632,-0.45716 -3.809052,-0.75965 -3.896491,-0.67221 -0.263579,0.26358 2.14377,2.7511 4.802765,4.96271 6.601615,5.49089 14.116966,9.26596 21.609127,10.85458 3.116854,0.66089 9.050697,0.67931 11.543429,0.0358 z M 73.768016,157.42991 c 4.769143,-0.66217 7.236486,-1.28616 11.175728,-2.82633 6.490131,-2.53751 13.014434,-6.24807 17.246076,-9.80834 2.76885,-2.32956 7.19806,-6.6323 8.34646,-8.10815 0.62181,-0.7991 -0.30993,-0.0843 -2.35684,1.8081 -8.00483,7.40056 -11.080265,9.62037 -18.012615,13.00125 -10.011239,4.88245 -13.888435,5.75211 -25.696063,5.76367 -7.153461,0.007 -8.279416,-0.0699 -11.822191,-0.80697 -2.153644,-0.4481 -5.167522,-1.19654 -6.697511,-1.66322 -1.52999,-0.46667 -2.9393,-0.796 -3.131797,-0.73183 -0.542793,0.18092 6.108923,2.13635 9.86913,2.90126 1.854442,0.37723 4.597002,0.81412 6.094579,0.97087 3.394061,0.35525 10.541895,0.1166 14.985044,-0.50031 z m -32.057568,-3.7191 c -0.519893,-0.12464 -1.78272,0.51056 -1.78272,0.89671 0,0.1519 0.49796,0.0355 1.106581,-0.25867 0.608621,-0.29417 0.912883,-0.58129 0.676139,-0.63804 z m 73.658282,-16.15205 c 0,-2.23341 -0.0105,-2.25984 -1.14002,-2.86813 -0.62701,-0.33767 -1.24471,-0.50926 -1.37265,-0.38131 -0.12795,0.12795 0.0145,0.23263 0.31643,0.23263 1.18252,0 1.86681,1.20756 1.86681,3.29437 0,1.08714 0.0741,1.97662 0.16471,1.97662 0.0906,0 0.16472,-1.01439 0.16472,-2.25418 z m -73.939143,-5.49294 c 0.595711,-0.46532 0.579133,-0.47373 -0.242179,-0.12291 -1.268295,0.54176 -2.273436,0.17279 -4.16686,-1.52956 -1.874392,-1.68524 -2.785116,-3.02269 -3.894259,-5.71897 -0.42571,-1.03488 -0.763406,-1.54056 -0.767786,-1.14972 -0.01057,0.94294 2.076087,4.95881 3.20161,6.16167 1.228879,1.31331 3.680068,2.859 4.533865,2.859 0.382872,0 0.983896,-0.22478 1.335609,-0.49951 z m 4.757438,-3.07895 c 3.44265,-2.35526 3.821641,-2.63096 6.877802,-5.00324 1.155532,-0.89696 2.193258,-1.63654 2.306057,-1.6435 0.112799,-0.007 0.94632,-0.68591 1.852271,-1.50879 1.209154,-1.09827 0.683518,-0.8034 -1.97662,1.10885 -10.359823,7.4472 -13.01275,9.38925 -13.01275,9.52587 0,0.20497 0.358091,-0.0196 3.95324,-2.47919 z m 2.38615,-6.7988 c 8.681329,-6.27732 8.251925,-5.68582 6.176513,-8.50794 -2.178766,-2.96267 -5.569009,-4.42715 -9.416925,-4.06782 -3.609104,0.33702 -6.65131,2.45736 -8.277795,5.76942 -1.23005,2.50479 -1.295998,6.28197 -0.153345,8.78296 0.885897,1.93902 2.952384,4.19722 3.529794,3.85727 0.218104,-0.1284 3.881894,-2.75365 8.141758,-5.83389 z m -16.324838,-4.36503 c -0.08286,-0.31709 -0.150659,-0.0577 -0.150659,0.57651 0,0.63417 0.0678,0.8936 0.150659,0.57651 0.08286,-0.31708 0.08286,-0.83594 0,-1.15302 z m 27.610311,0.90595 c 0.327951,-0.36238 0.522151,-0.65888 0.431556,-0.65888 -0.0906,0 -0.433041,0.2965 -0.760992,0.65888 -0.327951,0.36238 -0.522151,0.65887 -0.431556,0.65887 0.0906,0 0.433042,-0.29649 0.760992,-0.65887 z m 0.02227,-4.16187 c -0.974888,-2.12945 -3.683056,-6.05067 -4.178855,-6.05067 -0.184125,0 -0.816861,-0.36771 -1.406082,-0.81713 -1.036991,-0.79095 -3.523569,-1.83706 -4.279494,-1.8004 -0.203708,0.01 0.331209,0.30288 1.188699,0.65111 2.302506,0.93506 3.857227,2.00904 5.575605,3.85155 1.742199,1.86805 2.69294,3.56521 3.302197,5.89472 0.299198,1.14399 0.453328,1.39424 0.533233,0.86576 0.06182,-0.40883 -0.269067,-1.57655 -0.735296,-2.59494 l -7e-6,0 z m -25.97113,-1.27384 c 1.594339,-3.0926 4.568053,-5.57941 8.154976,-6.81974 0.908316,-0.31409 1.337849,-0.57591 0.954517,-0.58183 -1.186269,-0.0183 -5.310864,2.26057 -6.816437,3.76615 -1.602547,1.60254 -3.863889,5.62515 -3.830122,6.81324 0.01592,0.5601 0.138069,0.4095 0.43988,-0.54233 0.229813,-0.72476 0.723547,-1.91073 1.097186,-2.63549 z m 68.840022,2.30631 c 1.02283,-0.71642 1.99134,-2.43831 2.22374,-3.95349 0.17072,-1.1131 0.0747,-0.98519 -0.61803,0.82359 -1.03826,2.71082 -1.81074,3.38095 -3.61619,3.13706 -0.741551,-0.10017 -6.010288,-0.62816 -11.708304,-1.17332 -11.304153,-1.08153 -11.24095,-1.06427 -11.816628,-3.22641 -0.228915,-0.85976 -0.331482,-0.98966 -0.355712,-0.45051 -0.04515,1.00467 0.783285,2.5631 1.518591,2.85674 0.750081,0.29953 9.694189,1.33011 15.907507,1.83293 2.627257,0.21261 4.838601,0.44523 4.914098,0.51694 0.356184,0.3383 2.924278,0.0754 3.550928,-0.36353 z m -1.81964,-4.53001 c 0.22511,-0.40767 0.41038,-1.85308 0.41174,-3.212 0.006,-5.96798 -4.389918,-10.372938 -10.351493,-10.372938 -4.212105,0 -7.730526,2.210514 -9.431236,5.925348 -0.850026,1.8567 -1.329333,5.33016 -0.835432,6.05423 0.220993,0.32397 2.838489,0.71364 9.158924,1.36351 11.206437,1.15224 10.552727,1.13793 11.047497,0.24185 z m -24.209927,-3.60321 c -0.105162,-0.2628 -0.183226,-0.18474 -0.199032,0.19904 -0.0143,0.34727 0.06356,0.54185 0.173027,0.43238 0.109468,-0.10947 0.12117,-0.39361 0.02599,-0.63142 l 1.3e-5,0 z m -30.446329,-1.81731 c -0.405187,-0.0782 -1.14642,-0.0802 -1.647183,-0.004 -0.500764,0.0757 -0.169248,0.13971 0.736703,0.14218 0.905951,0.002 1.315668,-0.0595 0.91048,-0.13768 l 0,-10e-6 z m 32.181739,-4.34852 c 1.47868,-2.898456 4.544675,-5.573799 7.92265,-6.913193 0.996546,-0.395139 1.367162,-0.632294 0.823592,-0.527013 -4.384977,0.849308 -9.592367,6.143616 -10.203133,10.373436 -0.164576,1.13977 -0.161308,1.13767 0.284275,-0.18263 0.24792,-0.73461 0.775599,-1.97238 1.172616,-2.7506 z m 26.167547,1.37978 c -1.12818,-3.319029 -4.894145,-7.167129 -8.267636,-8.447943 -0.924416,-0.350972 -2.735004,-0.645788 -4.376837,-0.712674 l -2.800212,-0.114074 2.635493,0.274184 c 4.316316,0.449045 6.710521,1.605272 9.486102,4.581104 1.56744,1.680522 3.50197,5.202283 3.5524,6.467013 0.0166,0.41733 0.0919,0.49372 0.20533,0.20838 0.0985,-0.24778 -0.0971,-1.26297 -0.43464,-2.25599 z"
     id="path3385"
     inkscape:connector-curvature="0" /></svg>