<?xml version="1.0" encoding="UTF-8" standalone="no"?>
<!-- Created with Inkscape (http://www.inkscape.org/) -->

<svg
   xmlns:dc="http://purl.org/dc/elements/1.1/"
   xmlns:cc="http://creativecommons.org/ns#"
   xmlns:rdf="http://www.w3.org/1999/02/22-rdf-syntax-ns#"
   xmlns:svg="http://www.w3.org/2000/svg"
   xmlns="http://www.w3.org/2000/svg"
   xmlns:sodipodi="http://sodipodi.sourceforge.net/DTD/sodipodi-0.dtd"
   xmlns:inkscape="http://www.inkscape.org/namespaces/inkscape"
   width="744.09448819"
   height="1052.3622047"
   id="svg2"
   version="1.1"
   inkscape:version="0.48.4 r9939"
   sodipodi:docname="cross_menu.svg">
  <defs
     id="defs4" />
  <sodipodi:namedview
     id="base"
     pagecolor="#ffffff"
     bordercolor="#666666"
     borderopacity="1.0"
     inkscape:pageopacity="0"
     inkscape:pageshadow="2"
     inkscape:zoom="0.35"
     inkscape:cx="23.571429"
     inkscape:cy="520"
     inkscape:document-units="px"
     inkscape:current-layer="layer1"
     showgrid="false"
     inkscape:window-width="1366"
     inkscape:window-height="713"
     inkscape:window-x="0"
     inkscape:window-y="30"
     inkscape:window-maximized="1" />
  <metadata
     id="metadata7">
    <rdf:RDF>
      <cc:Work
         rdf:about="">
        <dc:format>image/svg+xml</dc:format>
        <dc:type
           rdf:resource="http://purl.org/dc/dcmitype/StillImage" />
        <dc:title></dc:title>
      </cc:Work>
    </rdf:RDF>
  </metadata>
  <g
     inkscape:label="Layer 1"
     inkscape:groupmode="layer"
     id="layer1"
     style="display:inline">
    <path
       style="fill:#ffffff;fill-opacity:1;stroke:#ffffff"
       d="m 535.36865,308.43891 -259.33743,281.6446 c -9.64967,10.4797 -25.85491,11.14792 -36.33461,1.49824 l -23.12007,-21.28889 c -10.47971,-9.64967 -11.14792,-25.85491 -1.49824,-36.33462 l 259.33743,-281.6446 c 9.64967,-10.4797 25.85491,-11.14792 36.33462,-1.49824 l 23.12007,21.28889 c 10.4797,9.64967 11.14791,25.85491 1.49823,36.33462 z"
       id="rect2985"
       inkscape:connector-curvature="0" />
    <path
       inkscape:connector-curvature="0"
       style="fill:#ffffff;fill-opacity:1;stroke:#ffffff"
       d="m 274.75529,253.06955 261.46257,279.67287 c 9.72875,10.40634 9.18326,26.61616 -1.22307,36.34491 l -22.95821,21.46334 c -10.40634,9.72875 -26.61617,9.18326 -36.34492,-1.22307 L 214.22909,309.65473 c -9.72875,-10.40634 -9.18326,-26.61616 1.22307,-36.34492 l 22.95822,-21.46334 c 10.40633,-9.72874 26.61616,-9.18325 36.34491,1.22308 z"
       id="rect2985-7" />
  </g>
</svg>
